<?xml version='1.0' encoding='UTF-8'?>
<svg xmlns="http://www.w3.org/2000/svg" width="1440" height="1800" version="1.0" viewBox="0 0 1080 1350">
  <circle cx="540.0" cy="675.0" r="540.0" fill="#66102b" style="fill:#66102b" data-added="background-circle"/>
  <path d="M563.4 211.9c-9.1 4.1-13.6 14-15.6 34.5l-1.2 12.1-8.3 16.7c-4.5 9.3-11.8 23.5-16.3 31.7-4.4 8.1-8 15.2-8 15.6 0 1.3 7.9-.4 19-4 5.8-1.8 12.3-3.7 14.5-4 2.2-.4 4.7-1.1 5.6-1.6 1.6-.8 9.7-21.2 11.5-28.9.8-3.3.9-3.1 1.5 3 .4 3.6.7 11 .8 16.6l.1 10-11.7 2.8c-6.5 1.5-18.9 4.9-27.5 7.5l-15.8 4.8-3.2-2.3c-2.4-1.8-4.5-2.4-8.6-2.4-4.9 0-5.8.3-8.7 3.5-4.4 4.6-5.2 8.5-2.8 13.2 2.6 5.2 6.1 7.5 11.7 7.5 3.4 0 5.8-.7 8.4-2.5 5.5-3.8 7-4.3 27.7-9.2 10.5-2.4 19.9-4.7 21-5 1.6-.5 2.7.4 5.2 3.9 5.8 8.3 14.2 10.2 21.6 4.9 2.3-1.6 4.8-4.1 5.5-5.7.8-1.5 2-3 2.8-3.3 1.4-.5 26.3 5 39.8 8.9 3.9 1.1 9.4 3.4 12.3 5 6.6 3.7 11 3.3 16-1.7 2.8-2.8 3.3-4 3.3-7.9 0-9.8-10.1-15.2-19.6-10.5l-4.3 2.2-17-5.2c-9.4-2.9-21-5.9-25.8-6.7-14.8-2.4-13.3.6-13.3-27.7v-24.4l4-8.5c5.2-11.3 7.1-19.2 5.8-25.2-3.1-14.5-18.2-23.2-30.4-17.7zM389.1 252.2c-13.4 1.6-29.6 12.1-35.1 22.7-3 5.9-6 18.3-6.1 25 0 4.3-.2 5.1-.9 3.4-1.7-4.1-2.2-13.8-1.1-19.7 1.4-7.5.6-8.6-6.3-8.6-9.9.1-17.6 4.7-22.6 13.3-2.8 4.8-3 5.9-3 15.2 0 12.1 1.6 16.2 8.3 22.1 4.2 3.7 12.9 8.6 20 11.3 4 1.6 3.5-.4-2.4-8.9-6.9-9.7-8.9-14.8-9.8-23.8-.5-4.3-.7-7.8-.6-8 .1-.1 1.2 2.6 2.5 6 3.4 9.4 6.5 15 11.1 20.5 5.8 6.8 14 13.3 16.6 13.3 2.7 0 2.7 0 1.3 12.5-2.9 26.1-8 34.5-25.9 42.7-22.4 10.2-26.7 12.7-33.5 19.8-4.5 4.6-7.7 9.2-10.1 14.2-3.9 8.2-10.1 28.3-11.1 36l-.7 5.1 9.9-.6c18.2-1.1 31.1-5.7 42.3-15.2 3.6-3 6.7-5.3 6.9-5 1 .9-8.4 11.9-13.3 15.6-9 6.8-19.1 10-38 11.9-6 .6-11.1 1.3-11.4 1.5-.9.9-4 18.4-4.1 22.7 0 5.2.2 5.3 4.6 3.8 1.6-.5 9.4-2.3 17.4-4 9.7-2.1 18.9-4.8 28-8.4 7.4-3 18.5-7 24.5-9.1 31.1-10.3 51.4-26.5 65.7-52 9.7-17.5 10-20.4 2.3-24.8-9.6-5.4-12.5-13.8-10.8-30.7l1-9.5-2.8-2.3c-2.7-2.2-7.5-9-6.8-9.6.2-.2 4.8 1.4 10.3 3.6 8.5 3.5 10.9 4 18 4.1 4.4 0 9.3-.5 10.9-1.1l2.7-1.2v-27.6l4.5-1.2c2.7-.7 4.5-1.8 4.5-2.6s-1.4-5-3.1-9.3c-2.3-5.7-3.3-10-3.7-16-.2-4.6-.7-8.3-1-8.3-.2 0-4.7 2-9.9 4.5-9.4 4.4-23.4 9-25.5 8.3-1.3-.5 19.2-13.7 28.9-18.7 6.6-3.5 7.7-4.4 8.7-7.8.5-1.6-.2-3-3.1-5.8-2.1-2-5-4.6-6.5-5.6l-2.7-2-3.9 5.9c-8.2 12-29.1 29.1-46 37.6-9.9 5-12.6 4.3-4.2-1 16.3-10.4 50.9-41.2 49.8-44.5-.8-2.4-6.9-5.9-13.7-7.9-8.4-2.4-13.1-2.8-21-1.8z" fill="#ffffff" style="fill:#ffffff"/>
  <path d="M195.7 305c-.7 3.1-1 15-.4 15 .1 0 5.2.7 11.2 1.5 18.2 2.4 24.5 5.4 35.1 16.8 8.3 8.9 14.4 19 21.7 35.7 4.3 10 12.7 31.2 15.2 38.8.7 1.9 3.5.1 11.8-7.6 11.7-10.6 22-16.4 38.5-21.3 2.6-.7 4.2-1.8 4.2-2.8 0-.8-5.2-12-11.6-24.9-10.9-22.2-11.9-23.8-18.7-30.6-7.9-7.9-14.1-11.8-26-16.6-12.9-5.2-19.4-6-51.3-6.7l-29.1-.6-.6 3.3zM531.1 342.2C515.2 346 505 350.7 505 354c0 1.9 10.8 32.2 11.8 33.2 1.8 1.8 14.9-16.5 21.7-30.1 2-4.1 4.8-9.2 6.2-11.4 1.3-2.1 2.3-4.6 2.1-5.6-.3-1.6-1.7-1.4-15.7 2.1zM477.8 379.7c-5.3 15.3-12.1 35-15.2 43.8-3.1 8.8-5.6 17.3-5.6 19 0 8.1 8 17.9 18.9 23.2 5 2.5 6.5 2.7 17.5 2.8 10.8 0 12.6-.2 16.5-2.4 10.9-5.8 20.1-18.3 18.5-25.4-.3-1.8-3.6-10.9-7.2-20.2-7.6-19.8-16.1-44.9-19.2-56.4-2.4-8.8-3.7-10.2-11.1-11.6l-3.6-.7-9.5 27.9zm23.8 18c9.7 24.7 15.4 40.2 15.4 41.7 0 1.8-33.1 3.2-44.7 2l-8-.9 7.4-17c4.1-9.4 9.5-22.2 12-28.5 2.5-6.3 5.5-13.3 6.6-15.4l1.9-4 1.4 2.6c.8 1.4 4.3 10.2 8 19.5zM652.2 353.6c-3.1 2.2-3.9 3.8-15.7 35-18.3 48.1-19.6 52.5-17.5 60.3 1.5 5.6 8.6 12.5 16.8 16.4 5.7 2.7 7.3 2.9 18 3.1 11 .1 12-.1 17.3-2.8 11.6-5.8 19.8-16.8 18.5-24.8-.4-2.2-4.9-15.3-10-29.1-5.2-13.9-11.2-31.1-13.5-38.2-6.6-20.3-7.1-21.5-9.5-21.5-1.2 0-3.2.7-4.4 1.6zm14.9 53.7c6.1 15.3 11.1 29.1 11.2 30.5l.2 2.7-25.2.3c-13.9.1-25.3-.1-25.3-.5s5.7-15.1 12.6-32.7c11.3-28.5 12.8-31.7 14-30.1.8 1 6.4 14.4 12.5 29.8z" fill="#ffffff" style="fill:#ffffff"/>
  <path d="M459.5 384.1c-3.3 1.5-7.9 3.1-10.3 3.5-2.3.3-4.5 1-4.8 1.5-.3.5-1 5.3-1.6 10.6-1.3 11.1-1.4 11.1-2.3-1-.7-8.6-.7-8.7-3.3-8.7-3.9 0-9.4 1.7-10.4 3.2-.4.7-.8 3.8-.8 6.8 0 13.8-5 28.8-14 41.9-6 8.9-18.2 21.4-26.4 27.2-6.9 4.9-10.3 6.2-29.6 11.4-8.2 2.3-26.3 9.6-28.1 11.4-1.1 1.1 1 19.1 2.6 22.1 1.7 3.2 5.7 4.5 10.8 3.5 23.2-4.7 40-13.7 55.4-29.8 13-13.7 21.1-27.8 29-50.2 3.4-9.9 3.4-10 2.9-4.3-.7 6.7-6.3 24.2-10.5 33.2-8.6 17.9-23.9 35.1-39.1 44.1-9.7 5.7-25.1 11.6-35.9 13.8-4 .9-7.8 2-8.4 2.6-.7.7-.1 2.9 2.1 7.2 1.8 3.6 3.2 7.7 3.2 9.8 0 5.3 1.1 6.5 5.1 5.6 9.6-2.1 24.7-9.4 40.5-19.6 5-3.3 9.5-5.9 9.9-5.9 1.9 0-13.3 11-35.2 25.5-26.6 17.6-35.5 25.4-42.5 37.1-9.4 15.6-17.6 39.8-22.1 65.4-1.9 10.8-2.2 15.9-2.1 38.5 0 14.3.6 29.8 1.2 34.5 1.1 8.1 1.5 8.9 7.9 18.2 3.8 5.3 16.1 21.9 27.4 37 34.7 46 52.9 73 58.5 86.7 2.4 6 5.4 20.6 5.4 26.3 0 2.8-.2 3-2.7 2.3-1.6-.3-8.8-3.6-16.2-7.3-11.9-6-14.7-7.9-25-17.2-6.4-5.8-22.7-21.6-36.3-35.2-13.7-13.7-25-24.8-25.2-24.8-.2 0-.6 3.9-1 8.7-1.6 20.1-6.4 46.6-12.1 65.8-9.7 33-22.4 58.4-43.4 86.5-5.6 7.4-10.1 13.8-10.1 14.2 0 2.8 30.1 1.9 33.3-1 6.8-6.1 24.6-38.9 29.6-54.5 5.8-18.2 12.8-50.4 15.2-70.5.7-5.6 1.7-10.2 2.2-10.2 1.3 0-.1 32.1-1.9 44.9-1.8 12.3-7.4 35-11.6 47-3.7 10.5-14.5 33.3-18.7 39.4-1.7 2.5-2.7 4.8-2.2 5.1.5.3 9.5.9 19.9 1.2l19.1.7 5.1-10.9c11.3-23.8 15.4-42.6 17-76.9.5-11.6 1-23.7 1.1-27l.1-6 2 7c1.7 5.9 2.1 10.8 2.5 30.5.3 14.7.1 26.9-.7 32.7-1.6 13-6.3 30-11 40-2.2 4.7-3.8 8.9-3.4 9.2 1.1 1.1 41.2.7 42.4-.5 1.6-1.6 3.7-10.3 5.5-22.4 1.3-8.8 1.4-13.4.6-26.5-.6-8.8-1.8-19.5-2.7-23.8-.8-4.3-1.3-8.1-1.1-8.4 1.1-1 5.8 9.9 8 18.5 2 7.9 2.2 11.1 2.2 35.8v27.1l33 .6c18.2.3 36.1.3 39.8-.1l6.8-.7-7.6-11.3c-22.5-33.4-34.1-62.6-43.4-109.8-5.3-26.6-6.5-40.6-6.5-74.4 0-33.5.6-40 6.5-78.5 4.4-29.1 8.2-48.5 13.5-68.5 4-15.3 12.2-41 13.5-42.4.4-.5.6 0 .3 1-19 82-25.5 125.3-27.1 180.4-1.7 60.6 11.9 124.2 35.3 165 6.8 11.8 20.6 32.2 25.3 37.4l2.6 2.8 25.4-.5c13.9-.3 25.5-.8 25.8-1.1.6-.6-3.2-5.5-14.1-18.1-22.1-25.6-41.2-54.7-55.5-84.7-8.2-17.1-14-33.3-18.7-52.3-5.1-20.5-6.4-48.8-4.4-94 1.4-32.6 6.5-76 10.9-93.5l1.9-7.5.1 5c0 2.7-1 20.1-2.4 38.5-5.4 72.2-5.5 98.5-.5 130 7 44.7 25 85.2 57.4 129 11.6 15.7 25.7 33 33.5 41.2l7.4 7.8h14.1c13.6 0 18.6-.5 18.6-1.9 0-.3-4.3-5.3-9.6-11.1-30.7-33.8-49.2-62.2-58.4-89.7-5.6-17-6.5-22.5-11-65.3-7.4-71.8-7.6-72.9-23.9-142-2.8-11.8-5.7-23.8-6.5-26.5-2.5-8.5-9.5-40.5-11.1-50.5-.9-5.2-1.8-16.3-2.2-24.6-.5-13.1-.2-17.6 2.1-35 2.6-18.8 5.3-34.9 9.2-56.2 1.5-8.1 1.6-10.8.6-19.5-.6-5.6-1.8-13.4-2.8-17.2l-1.6-7 3.4-14c1.9-7.7 5.7-20.9 8.3-29.3 2.8-8.8 4.4-15.6 3.9-16.1-.5-.5-3.6.4-6.9 2zm-29.6 144.1c-4.6 9.7-10.8 18.2-24.3 33.2-39.8 44.2-57.8 70.4-68.6 99.6-4.8 13-7.9 29.3-10.4 55.5-.2 2.2-.2-.7 0-6.5.9-22.9 6.5-50.4 14.4-69.6 8.3-20.3 20-36.9 46.3-65.4 26.4-28.6 34.5-38.4 42.2-50.9 2.1-3.4 4-5.9 4.3-5.7.2.3-1.5 4.7-3.9 9.8zm-13.5-5c-2.4 4.1-22.2 24.1-35.9 36.5-23.1 20.8-38 37.9-48.9 56-5.1 8.6-14.9 29.2-18.1 38.6-1.5 4.3-3 7.6-3.2 7.4-.8-.9 4.1-20.6 6.9-27.7 4.8-12 13.4-28.2 20.1-37.6 8.6-12.1 23.5-27.4 36.4-37.4 15.1-11.7 31.9-25.9 37.8-31.9 5-5.2 6.2-6.1 4.9-3.9zm6.5 41.5c-4 7.6-10.8 20.5-15.2 28.8-4.4 8.2-10.6 19.9-13.8 26-22.8 43.2-40.3 93-45.7 130-2.3 16-2.8 10.1-.7-8.9 5.3-49.2 19.7-91 46.8-136.1 8.2-13.7 34.6-53.5 35.4-53.5.2 0-2.9 6.2-6.8 13.7zm3.7 16.4c-.8 2.4-2.6 8.7-4.1 13.9-1.5 5.2-6.9 22.5-12 38.5-13.8 43.2-22.1 71.5-26 88.7-2.8 12.3-9 47.2-14.1 80.3-.8 4.9-.8 4.8-1.5-4-.8-10.8.6-36 2.7-50.5 5.8-38.9 16.4-75.2 37.5-127.1 6-15.1 12.6-31.4 14.6-36.2 3.7-9.2 5.3-11.1 2.9-3.6zM719.6 392c-13.8.9-30 3-31.7 4.1-.8.5-.7 2.1.6 6 2.9 8.7 9.3 21.9 10.6 21.9.7 0 8-1.4 16.3-3.1 14.9-3 15.3-3.1 40.1-2.7 23 .4 25.9.6 36.9 3.2 6.5 1.5 16.4 4.3 21.9 6.3 45.4 15.8 80.1 52.5 97.3 102.9 2 6 4.4 11.7 5.2 12.6 1.2 1.4 3.1 1.8 9.4 1.8h7.8v-28.5c0-39.1-1.9-107.8-3-108.9-1.4-1.4-14.6-.9-17.4.6-11.9 6.6-10.1 6.1-23.1 5.5-8.4-.5-16.5-1.7-27-4.1-8.2-1.9-19.9-4.6-26-6-16.8-3.9-42.6-8.4-57.5-10.1-16.9-1.9-44.8-2.6-60.4-1.5z" fill="#ffffff" style="fill:#ffffff"/>
  <path d="M591.4 435.6c-31.4 21.4-56 46-72.9 72.9-17 27-31.5 66.6-34 93.1-.6 5.6-.3 8.4 1 12.5 2.7 8.3 15.3 40.1 25.3 63.9 4.9 11.8 19.2 46.9 31.7 78 32.6 81.1 38.7 94.9 44.1 100.3 5.3 5.3 34.8 19.1 57.4 26.8 41.1 14.1 78.4 19.9 126.6 19.9 43.1 0 82.5-6.2 121.4-19 16.9-5.5 41.3-15.8 55.5-23.4l10-5.3.6-69.9c.4-53.5.8-70.8 1.8-73.9 3.9-12 11.9-22.3 20.3-26.2 2.4-1.1 7.2-2.5 10.8-3.2 3.9-.6 7-1.8 7.8-2.8 1.4-1.9 1.6-11.1.3-14.5l-.9-2.3-48.1.3-48.1.2v4.4c0 4.2.3 4.6 4.2 6.8 2.3 1.3 5.6 4.3 7.3 6.6 2.8 4.1 3 4.9 3 13.5 0 7.7-.4 10-2.4 14.1-3.2 6.5-14.9 17.8-25.4 24.6l-8.6 5.5V757c0 10.2.2 19.5.5 20.6.7 2.6 4.3 4.4 8.7 4.4 5.7 0 33.6 7.4 32.4 8.6-.2.2-3.6 0-7.5-.6-19.4-2.7-53.2-4.3-94.5-4.4l-42.8-.1-4 4.2c-2.7 3-3.9 5.1-3.9 7.2 0 5.8-.3 5.8 53.5 6.5 44.6.5 71.9 1.4 100.3 3.2 8.6.5 10.2.9 10 2.2-.2.9-1.6 1.9-3.3 2.4-1.6.5-37.2 1.3-79 1.8s-78.1 1.2-80.7 1.6c-7.3.9-14.9 7.3-17.7 14.7-.7 1.9-.7 2.8.2 3.4.7.4 29.2 1 63.4 1.3 43.9.4 62.5.8 63.3 1.6 2.8 2.8-4 11.7-13.9 18.1-17 11.1-42.8 17.1-77.1 18-24.5.6-40.3-.8-60-5.7-62.5-15.2-112.6-60.6-137.6-124.5-21.3-54.5-21.4-136.1-.3-200 7.9-23.7 16.5-39.9 32.4-60.7l3.6-4.7-6.5-3.1c-11.9-5.6-18.5-16.1-19.3-30.8-.3-4.8-.9-9.3-1.3-10-.5-1-2.4-.1-7.6 3.4zM316.2 496.6c-1.8.8-11.8 3.7-22.2 6.4-10.5 2.7-19.9 5.4-21 6-1.1.6-3.9 4.8-6.1 9.3-2.3 4.5-6.8 11.9-10 16.4-10.1 13.9-15.6 27.3-38.8 94.5-4.6 13.2-8.8 20.8-11.5 20.8-2.8 0-6.9-4.6-10.2-11.5-5.1-10.7-10-12.1-17.1-5-5.6 5.6-3.8 11.6 6 19.5l6.6 5.3-3 5.2c-3.6 6.5-3.6 8.3.1 15.9 1.6 3.4 3.7 9 4.6 12.6 1.8 7.2 3.9 11 6.1 11 .7 0 3.5-2 6.1-4.4 2.6-2.4 8.5-6.8 13.2-9.8 13.9-9 15.6-11.9 16.9-29.2.6-7.8 1.5-12.7 3-16 1.1-2.6 10.3-17.2 20.3-32.4 25.4-38.7 29.8-46.1 35.8-61.3 6.7-17.1 10-23.4 19.9-39.3 4.5-7.1 8.1-13.5 8.1-14.2 0-1.7-2.5-1.7-6.8.2z" fill="#ffffff" style="fill:#ffffff"/>
  <path d="M798.4 511.5c-25.7 6-52.5 20-71.8 37.6-7.6 7-10.5 12.2-10.6 18.8 0 3.7.5 4.9 3.9 8.2 5 5.1 7.5 5 14.2-.4 16.1-13.1 26.6-19.8 42.2-27.2 17.7-8.4 34.5-13.6 51.8-15.9 6-.9 7.8-2.3 8.5-6.6.7-5-3-12-7.6-14.2-6.1-3-18.8-3.1-30.6-.3z" fill="#ffffff" style="fill:#ffffff"/>
  <path d="M817.5 540.9c-18.9 3.1-65.4 25.2-78.9 37.5-3.5 3.3-3.8 3.9-3.3 7.4.8 4.5 4.7 8.2 8.7 8.2 4.1 0 12.8-3.5 32.5-13 9.4-4.5 23.9-11.1 32.4-14.6 18.6-7.7 23.6-10.5 26.2-14.7 4-6.6 1.5-10.4-7.1-11.1-3-.2-7.7-.1-10.5.3zM445.6 554.4c-.9 3.5 1 19.8 3.9 34.5 1.4 6.9 7.9 33.3 14.5 58.6 22.9 88.1 26.1 103.9 30.5 151 4.9 52.2 5.6 59.1 7.6 68.8 2.3 11.2 8.2 30.4 11 35.9l1.9 3.8h44c24.2 0 44-.3 44-.6s-1.3-2.3-2.9-4.3c-4.3-5.5-16.4-26-23.7-40.4-9.2-18-23.3-50.6-38.9-89.7-7.4-18.4-19.7-48.8-27.5-67.5-7.8-18.7-22.9-55.4-33.5-81.5-24.4-59.7-28.4-69.3-29.4-70.3-.5-.5-1.1.3-1.5 1.7zM840.8 558c-3.1 1.1-13.5 5.6-23 10.1s-28.3 13.2-41.8 19.3c-40.3 18.4-38.4 17.4-38.8 22.2-.6 8.3 6.6 12.1 14.7 7.9 4.3-2.1 4.5-1.9 2.3 1.8l-1.9 3.4 7.4 15.9c4.1 8.7 10.2 21.7 13.4 28.9 3.3 7.1 6.5 13.3 7.2 13.7.6.4 2.3.4 3.7.1l2.5-.6-2 2.4c-1.1 1.3-3.7 4.3-5.7 6.6-5 5.7-5.7 8.7-2.7 12 2.1 2.2 3 2.4 7.6 2 5.3-.6 23.8-8.3 52.3-22 16-7.6 43.6-19.8 49.4-21.7 4.2-1.3 7.6-5.9 7.6-10.1 0-1.4-1.1-3.8-2.5-5.3-2.9-3.2-2.8-3.2-16 2.6-18 8-57.2 22.7-64 24.1-2.9.6-2.9.6.5-1 24.8-11.9 52.5-25.9 56.5-28.6 4.2-2.8 5-3.8 4.9-6.2-.1-1.7-3.4-10-7.4-18.5s-9.4-20.2-12-26c-3.6-7.9-5.3-10.6-6.9-10.8-1.1-.2-6 .6-10.8 1.8-4.9 1.2-9.7 2.4-10.8 2.6-1.1.3 3.4-2.3 9.9-5.8 6.6-3.5 13.5-7.7 15.3-9.4 4.2-4 4.5-8.3.7-11.3-3.2-2.5-2.5-2.5-9.6-.1z" fill="#ffffff" style="fill:#ffffff"/>
  <path d="M737.2 640.6c-2.9 1.7-4.9 4-6.5 7.2-1.6 3.4-3.4 5.3-6.3 7-6 3.2-87.8 38.1-107.4 45.8-9.1 3.5-17.2 6.8-18 7.3-2.5 1.4-1.7 10.7 2 22 5.5 17.1-2.8 19 66.6-15.3 76.2-37.8 70.5-35.3 76-33.8 2.4.7 5.7 1.2 7.3 1.2 3.6 0 8.9-3.6 11.9-8 2.8-4.1 2.6-8.8-.6-17.2-1.2-2.9-2.3-6.5-2.6-7.9-1.3-6-7.9-10.9-14.8-10.9-1.8 0-5.2 1.2-7.6 2.6zM253.3 667.9c-6.8 4.6-13.3 10.3-37 32.9-15.3 14.5-17.3 16.8-17.3 19.6 0 4.2 2.3 7.3 5.9 8.1 3.7.8 6-.4 13-6.6l5.4-4.8 4.6 5.7c2.6 3.1 11 13.3 18.6 22.7 56.2 68.9 94.9 111.4 112.4 123.4 10 6.8 27 17.1 28.3 17.1.4 0 .8-.7.8-1.5 0-2.8-12.9-27.3-19.6-37.1-14.9-22.1-99.4-132.7-111.6-146.1-3.1-3.4-4.8-6.2-4.8-7.8 0-3.7 7.5-11.3 13.7-14.1 6.4-2.9 9-6.2 7.3-9.6-3.7-7.1-10.9-7.7-19.7-1.9zm-2.7 44.8c19.2 22.1 47 59 52.8 70.3 1.3 2.4-8-8.2-21.2-24.4-6.8-8.3-16-19.6-20.6-25.1-10.7-12.9-22.6-28.5-22.6-29.6 0-2.2 6.1 2.5 11.6 8.8zM862 676.6c-19.4 8.5-28 12.1-38.8 16.5-21.5 8.7-28.2 13.2-28.2 19.2 0 7.8 8.9 9.7 25.8 5.6 16.2-4 36.8-13.5 56.2-26 8.7-5.5 12.1-9.9 12.3-15.6.1-4.2-2.9-7.3-7.2-7.3-1.4 0-10.5 3.4-20.1 7.6z" fill="#ffffff" style="fill:#ffffff"/>
  <path d="M887.2 691.3c-11.1 8.8-31.5 21.3-43 26.3-10.5 4.5-24.2 8-35.2 8.9-11 1-12.8 1.7-14.6 6.2-2 4.7-1.1 9.2 2.4 12.5 4.5 4.2 7.1 5 16.1 5 15.2 0 38.5-7.3 62.8-19.6 22.3-11.3 31.8-19.3 34.4-28.9 2.3-8.5-2.1-16.4-9.6-17.3-3.7-.5-4.6 0-13.3 6.9zM218.1 736.7c-2.4 1-4.9 1.3-7.7.8-5.4-.8-4.6-2.4-17.2 33.1-20.3 56.8-25.1 68.3-35.2 83.7-12.8 19.4-28.6 30.7-48.7 34.8l-6.3 1.3V907h142.3l-.6-6.8c-.4-3.7-.7-8.1-.7-9.7v-3.1l-11.9-1.1c-18.5-1.8-25.8-5.9-28.8-16.2-3.6-12.6-1-23.8 19.4-82.7 9.2-26.9 12.4-37 11.9-39-.8-2.9-10.2-13.4-12-13.3-.6 0-2.7.7-4.5 1.6z" fill="#ffffff" style="fill:#ffffff"/>
</svg>
