<?xml version="1.0" standalone="no"?>
<!DOCTYPE svg PUBLIC "-//W3C//DTD SVG 20010904//EN" "http://www.w3.org/TR/2001/REC-SVG-20010904/DTD/svg10.dtd">
<svg xmlns="http://www.w3.org/2000/svg" version="1.0" width="1080.000000pt" height="1350.000000pt" viewBox="0 0 1080.000000 1350.000000" preserveAspectRatio="xMidYMid meet">
<metadata>
Created by potrace 1.16, written by Peter Selinger 2001-2019
<meta name="Producer" content="Online-Convert"/></metadata>
<g transform="translate(0.000000,1350.000000) scale(0.100000,-0.100000)" fill="#000000" stroke="none">
<path d="M5634 11381 c-91 -41 -136 -140 -156 -345 l-12 -121 -83 -167 c-45 -93 -118 -235 -163 -317 -44 -81 -80 -152 -80 -156 0 -13 79 4 190 40 58 18 123 37 145 40 22 4 47 11 56 16 16 8 97 212 115 289 8 33 9 31 15 -30 4 -36 7 -110 8 -166 l1 -100 -117 -28 c-65 -15 -189 -49 -275 -75 l-158 -48 -32 23 c-24 18 -45 24 -86 24 -49 0 -58 -3 -87 -35 -44 -46 -52 -85 -28 -132 26 -52 61 -75 117 -75 34 0 58 7 84 25 55 38 70 43 277 92 105 24 199 47 210 50 16 5 27 -4 52 -39 58 -83 142 -102 216 -49 23 16 48 41 55 57 8 15 20 30 28 33 14 5 263 -50 398 -89 39 -11 94 -34 123 -50 66 -37 110 -33 160 17 28 28 33 40 33 79 0 98 -101 152 -196 105 l-43 -22 -170 52 c-94 29 -210 59 -258 67 -148 24 -133 -6 -133 277 l0 244 40 85 c52 113 71 192 58 252 -31 145 -182 232 -304 177z"/>
<path d="M3891 10978 c-134 -16 -296 -121 -351 -227 -30 -59 -60 -183 -61 -250 0 -43 -2 -51 -9 -34 -17 41 -22 138 -11 197 14 75 6 86 -63 86 -99 -1 -176 -47 -226 -133 -28 -48 -30 -59 -30 -152 0 -121 16 -162 83 -221 42 -37 129 -86 200 -113 40 -16 35 4 -24 89 -69 97 -89 148 -98 238 -5 43 -7 78 -6 80 1 1 12 -26 25 -60 34 -94 65 -150 111 -205 58 -68 140 -133 166 -133 27 0 27 0 13 -125 -29 -261 -80 -345 -259 -427 -224 -102 -267 -127 -335 -198 -45 -46 -77 -92 -101 -142 -39 -82 -101 -283 -111 -360 l-7 -51 99 6 c182 11 311 57 423 152 36 30 67 53 69 50 10 -9 -84 -119 -133 -156 -90 -68 -191 -100 -380 -119 -60 -6 -111 -13 -114 -15 -9 -9 -40 -184 -41 -227 0 -52 2 -53 46 -38 16 5 94 23 174 40 97 21 189 48 280 84 74 30 185 70 245 91 311 103 514 265 657 520 97 175 100 204 23 248 -96 54 -125 138 -108 307 l10 95 -28 23 c-27 22 -75 90 -68 96 2 2 48 -14 103 -36 85 -35 109 -40 180 -41 44 0 93 5 109 11 l27 12 0 138 0 138 45 12 c27 7 45 18 45 26 0 8 -14 50 -31 93 -23 57 -33 100 -37 160 -2 46 -7 83 -10 83 -2 0 -47 -20 -99 -45 -94 -44 -234 -90 -255 -83 -13 5 192 137 289 187 66 35 77 44 87 78 5 16 -2 30 -31 58 -21 20 -50 46 -65 56 l-27 20 -39 -59 c-82 -120 -291 -291 -460 -376 -99 -50 -126 -43 -42 10 163 104 509 412 498 445 -8 24 -69 59 -137 79 -84 24 -131 28 -210 18z"/>
<path d="M1957 10450 c-7 -31 -10 -150 -4 -150 1 0 52 -7 112 -15 182 -24 245 -54 351 -168 83 -89 144 -190 217 -357 43 -100 127 -312 152 -388 7 -19 35 -1 118 76 117 106 220 164 385 213 26 7 42 18 42 28 0 8 -52 120 -116 249 -109 222 -119 238 -187 306 -79 79 -141 118 -260 166 -129 52 -194 60 -513 67 l-291 6 -6 -33z"/>
<path d="M5311 10078 c-159 -38 -261 -85 -261 -118 0 -19 108 -322 118 -332 18 -18 149 165 217 301 20 41 48 92 62 114 13 21 23 46 21 56 -3 16 -17 14 -157 -21z"/>
<path d="M4778 9703 c-53 -153 -121 -350 -152 -438 -31 -88 -56 -173 -56 -190 0 -81 80 -179 189 -232 50 -25 65 -27 175 -28 108 0 126 2 165 24 109 58 201 183 185 254 -3 18 -36 109 -72 202 -76 198 -161 449 -192 564 -24 88 -37 102 -111 116 l-36 7 -95 -279z m238 -180 c97 -247 154 -402 154 -417 0 -18 -331 -32 -447 -20 l-80 9 74 170 c41 94 95 222 120 285 25 63 55 133 66 154 l19 40 14 -26 c8 -14 43 -102 80 -195z"/>
<path d="M6522 9964 c-31 -22 -39 -38 -157 -350 -183 -481 -196 -525 -175 -603 15 -56 86 -125 168 -164 57 -27 73 -29 180 -31 110 -1 120 1 173 28 116 58 198 168 185 248 -4 22 -49 153 -100 291 -52 139 -112 311 -135 382 -66 203 -71 215 -95 215 -12 0 -32 -7 -44 -16z m149 -537 c61 -153 111 -291 112 -305 l2 -27 -252 -3 c-139 -1 -253 1 -253 5 0 4 57 151 126 327 113 285 128 317 140 301 8 -10 64 -144 125 -298z"/>
<path d="M4595 9659 c-33 -15 -79 -31 -103 -35 -23 -3 -45 -10 -48 -15 -3 -5 -10 -53 -16 -106 -13 -111 -14 -111 -23 10 -7 86 -7 87 -33 87 -39 0 -94 -17 -104 -32 -4 -7 -8 -38 -8 -68 0 -138 -50 -288 -140 -419 -60 -89 -182 -214 -264 -272 -69 -49 -103 -62 -296 -114 -82 -23 -263 -96 -281 -114 -11 -11 10 -191 26 -221 17 -32 57 -45 108 -35 232 47 400 137 554 298 130 137 211 278 290 502 34 99 34 100 29 43 -7 -67 -63 -242 -105 -332 -86 -179 -239 -351 -391 -441 -97 -57 -251 -116 -359 -138 -40 -9 -78 -20 -84 -26 -7 -7 -1 -29 21 -72 18 -36 32 -77 32 -98 0 -53 11 -65 51 -56 96 21 247 94 405 196 50 33 95 59 99 59 19 0 -133 -110 -352 -255 -266 -176 -355 -254 -425 -371 -94 -156 -176 -398 -221 -654 -19 -108 -22 -159 -21 -385 0 -143 6 -298 12 -345 11 -81 15 -89 79 -182 38 -53 161 -219 274 -370 347 -460 529 -730 585 -867 24 -60 54 -206 54 -263 0 -28 -2 -30 -27 -23 -16 3 -88 36 -162 73 -119 60 -147 79 -250 172 -64 58 -227 216 -363 352 -137 137 -250 248 -252 248 -2 0 -6 -39 -10 -87 -16 -201 -64 -466 -121 -658 -97 -330 -224 -584 -434 -865 -56 -74 -101 -138 -101 -142 0 -28 301 -19 333 10 68 61 246 389 296 545 58 182 128 504 152 705 7 56 17 102 22 102 13 0 -1 -321 -19 -449 -18 -123 -74 -350 -116 -470 -37 -105 -145 -333 -187 -394 -17 -25 -27 -48 -22 -51 5 -3 95 -9 199 -12 l191 -7 51 109 c113 238 154 426 170 769 5 116 10 237 11 270 l1 60 20 -70 c17 -59 21 -108 25 -305 3 -147 1 -269 -7 -327 -16 -130 -63 -300 -110 -400 -22 -47 -38 -89 -34 -92 11 -11 412 -7 424 5 16 16 37 103 55 224 13 88 14 134 6 265 -6 88 -18 195 -27 238 -8 43 -13 81 -11 84 11 10 58 -99 80 -185 20 -79 22 -111 22 -358 l0 -271 330 -6 c182 -3 361 -3 398 1 l68 7 -76 113 c-225 334 -341 626 -434 1098 -53 266 -65 406 -65 744 0 335 6 400 65 785 44 291 82 485 135 685 40 153 122 410 135 424 4 5 6 0 3 -10 -190 -820 -255 -1253 -271 -1804 -17 -606 119 -1242 353 -1650 68 -118 206 -322 253 -374 l26 -28 254 5 c139 3 255 8 258 11 6 6 -32 55 -141 181 -221 256 -412 547 -555 847 -82 171 -140 333 -187 523 -51 205 -64 488 -44 940 14 326 65 760 109 935 l19 75 1 -50 c0 -27 -10 -201 -24 -385 -54 -722 -55 -985 -5 -1300 70 -447 250 -852 574 -1290 116 -157 257 -330 335 -412 l74 -78 141 0 c136 0 186 5 186 19 0 3 -43 53 -96 111 -307 338 -492 622 -584 897 -56 170 -65 225 -110 653 -74 718 -76 729 -239 1420 -28 118 -57 238 -65 265 -25 85 -95 405 -111 505 -9 52 -18 163 -22 246 -5 131 -2 176 21 350 26 188 53 349 92 562 15 81 16 108 6 195 -6 56 -18 134 -28 172 l-16 70 34 140 c19 77 57 209 83 293 28 88 44 156 39 161 -5 5 -36 -4 -69 -20z m-296 -1441 c-46 -97 -108 -182 -243 -332 -398 -442 -578 -704 -686 -996 -48 -130 -79 -293 -104 -555 -2 -22 -2 7 0 65 9 229 65 504 144 696 83 203 200 369 463 654 264 286 345 384 422 509 21 34 40 59 43 57 2 -3 -15 -47 -39 -98z m-135 50 c-24 -41 -222 -241 -359 -365 -231 -208 -380 -379 -489 -560 -51 -86 -149 -292 -181 -386 -15 -43 -30 -76 -32 -74 -8 9 41 206 69 277 48 120 134 282 201 376 86 121 235 274 364 374 151 117 319 259 378 319 50 52 62 61 49 39z m65 -415 c-40 -76 -108 -205 -152 -288 -44 -82 -106 -199 -138 -260 -228 -432 -403 -930 -457 -1300 -23 -160 -28 -101 -7 89 53 492 197 910 468 1361 82 137 346 535 354 535 2 0 -29 -62 -68 -137z m37 -164 c-8 -24 -26 -87 -41 -139 -15 -52 -69 -225 -120 -385 -138 -432 -221 -715 -260 -887 -28 -123 -90 -472 -141 -803 -8 -49 -8 -48 -15 40 -8 108 6 360 27 505 58 389 164 752 375 1271 60 151 126 314 146 362 37 92 53 111 29 36z"/>
<path d="M7196 9580 c-138 -9 -300 -30 -317 -41 -8 -5 -7 -21 6 -60 29 -87 93 -219 106 -219 7 0 80 14 163 31 149 30 153 31 401 27 230 -4 259 -6 369 -32 65 -15 164 -43 219 -63 454 -158 801 -525 973 -1029 20 -60 44 -117 52 -126 12 -14 31 -18 94 -18 l78 0 0 285 c0 391 -19 1078 -30 1089 -14 14 -146 9 -174 -6 -119 -66 -101 -61 -231 -55 -84 5 -165 17 -270 41 -82 19 -199 46 -260 60 -168 39 -426 84 -575 101 -169 19 -448 26 -604 15z"/>
<path d="M5914 9144 c-314 -214 -560 -460 -729 -729 -170 -270 -315 -666 -340 -931 -6 -56 -3 -84 10 -125 27 -83 153 -401 253 -639 49 -118 192 -469 317 -780 326 -811 387 -949 441 -1003 53 -53 348 -191 574 -268 411 -141 784 -199 1266 -199 431 0 825 62 1214 190 169 55 413 158 555 234 l100 53 6 699 c4 535 8 708 18 739 39 120 119 223 203 262 24 11 72 25 108 32 39 6 70 18 78 28 14 19 16 111 3 145 l-9 23 -481 -3 -481 -2 0 -44 c0 -42 3 -46 42 -68 23 -13 56 -43 73 -66 28 -41 30 -49 30 -135 0 -77 -4 -100 -24 -141 -32 -65 -149 -178 -254 -246 l-86 -55 0 -185 c0 -102 2 -195 5 -206 7 -26 43 -44 87 -44 57 0 336 -74 324 -86 -2 -2 -36 0 -75 6 -194 27 -532 43 -945 44 l-428 1 -40 -42 c-27 -30 -39 -51 -39 -72 0 -58 -3 -58 535 -65 446 -5 719 -14 1003 -32 86 -5 102 -9 100 -22 -2 -9 -16 -19 -33 -24 -16 -5 -372 -13 -790 -18 -418 -5 -781 -12 -807 -16 -73 -9 -149 -73 -177 -147 -7 -19 -7 -28 2 -34 7 -4 292 -10 634 -13 439 -4 625 -8 633 -16 28 -28 -40 -117 -139 -181 -170 -111 -428 -171 -771 -180 -245 -6 -403 8 -600 57 -625 152 -1126 606 -1376 1245 -213 545 -214 1361 -3 2000 79 237 165 399 324 607 l36 47 -65 31 c-119 56 -185 161 -193 308 -3 48 -9 93 -13 100 -5 10 -24 1 -76 -34z"/>
<path d="M3162 8534 c-18 -8 -118 -37 -222 -64 -105 -27 -199 -54 -210 -60 -11 -6 -39 -48 -61 -93 -23 -45 -68 -119 -100 -164 -101 -139 -156 -273 -388 -945 -46 -132 -88 -208 -115 -208 -28 0 -69 46 -102 115 -51 107 -100 121 -171 50 -56 -56 -38 -116 60 -195 l66 -53 -30 -52 c-36 -65 -36 -83 1 -159 16 -34 37 -90 46 -126 18 -72 39 -110 61 -110 7 0 35 20 61 44 26 24 85 68 132 98 139 90 156 119 169 292 6 78 15 127 30 160 11 26 103 172 203 324 254 387 298 461 358 613 67 171 100 234 199 393 45 71 81 135 81 142 0 17 -25 17 -68 -2z"/>
<path d="M7984 8385 c-257 -60 -525 -200 -718 -376 -76 -70 -105 -122 -106 -188 0 -37 5 -49 39 -82 50 -51 75 -50 142 4 161 131 266 198 422 272 177 84 345 136 518 159 60 9 78 23 85 66 7 50 -30 120 -76 142 -61 30 -188 31 -306 3z"/>
<path d="M8175 8091 c-189 -31 -654 -252 -789 -375 -35 -33 -38 -39 -33 -74 8 -45 47 -82 87 -82 41 0 128 35 325 130 94 45 239 111 324 146 186 77 236 105 262 147 40 66 15 104 -71 111 -30 2 -77 1 -105 -3z"/>
<path d="M4456 7956 c-9 -35 10 -198 39 -345 14 -69 79 -333 145 -586 229 -881 261 -1039 305 -1510 49 -522 56 -591 76 -688 23 -112 82 -304 110 -359 l19 -38 440 0 c242 0 440 3 440 6 0 3 -13 23 -29 43 -43 55 -164 260 -237 404 -92 180 -233 506 -389 897 -74 184 -197 488 -275 675 -78 187 -229 554 -335 815 -244 597 -284 693 -294 703 -5 5 -11 -3 -15 -17z"/>
<path d="M8408 7920 c-31 -11 -135 -56 -230 -101 -95 -45 -283 -132 -418 -193 -403 -184 -384 -174 -388 -222 -6 -83 66 -121 147 -79 43 21 45 19 23 -18 l-19 -34 74 -159 c41 -87 102 -217 134 -289 33 -71 65 -133 72 -137 6 -4 23 -4 37 -1 l25 6 -20 -24 c-11 -13 -37 -43 -57 -66 -50 -57 -57 -87 -27 -120 21 -22 30 -24 76 -20 53 6 238 83 523 220 160 76 436 198 494 217 42 13 76 59 76 101 0 14 -11 38 -25 53 -29 32 -28 32 -160 -26 -180 -80 -572 -227 -640 -241 -29 -6 -29 -6 5 10 248 119 525 259 565 286 42 28 50 38 49 62 -1 17 -34 100 -74 185 -40 85 -94 202 -120 260 -36 79 -53 106 -69 108 -11 2 -60 -6 -108 -18 -49 -12 -97 -24 -108 -26 -11 -3 34 23 99 58 66 35 135 77 153 94 42 40 45 83 7 113 -32 25 -25 25 -96 1z"/>
<path d="M7372 7094 c-29 -17 -49 -40 -65 -72 -16 -34 -34 -53 -63 -70 -60 -32 -878 -381 -1074 -458 -91 -35 -172 -68 -180 -73 -25 -14 -17 -107 20 -220 55 -171 -28 -190 666 153 762 378 705 353 760 338 24 -7 57 -12 73 -12 36 0 89 36 119 80 28 41 26 88 -6 172 -12 29 -23 65 -26 79 -13 60 -79 109 -148 109 -18 0 -52 -12 -76 -26z"/>
<path d="M2533 6821 c-68 -46 -133 -103 -370 -329 -153 -145 -173 -168 -173 -196 0 -42 23 -73 59 -81 37 -8 60 4 130 66 l54 48 46 -57 c26 -31 110 -133 186 -227 562 -689 949 -1114 1124 -1234 100 -68 270 -171 283 -171 4 0 8 7 8 15 0 28 -129 273 -196 371 -149 221 -994 1327 -1116 1461 -31 34 -48 62 -48 78 0 37 75 113 137 141 64 29 90 62 73 96 -37 71 -109 77 -197 19z m-27 -448 c192 -221 470 -590 528 -703 13 -24 -80 82 -212 244 -68 83 -160 196 -206 251 -107 129 -226 285 -226 296 0 22 61 -25 116 -88z"/>
<path d="M8620 6734 c-194 -85 -280 -121 -388 -165 -215 -87 -282 -132 -282 -192 0 -78 89 -97 258 -56 162 40 368 135 562 260 87 55 121 99 123 156 1 42 -29 73 -72 73 -14 0 -105 -34 -201 -76z"/>
<path d="M8872 6587 c-111 -88 -315 -213 -430 -263 -105 -45 -242 -80 -352 -89 -110 -10 -128 -17 -146 -62 -20 -47 -11 -92 24 -125 45 -42 71 -50 161 -50 152 0 385 73 628 196 223 113 318 193 344 289 23 85 -21 164 -96 173 -37 5 -46 0 -133 -69z"/>
<path d="M2181 6133 c-24 -10 -49 -13 -77 -8 -54 8 -46 24 -172 -331 -203 -568 -251 -683 -352 -837 -128 -194 -286 -307 -487 -348 l-63 -13 0 -83 0 -83 711 0 712 0 -6 68 c-4 37 -7 81 -7 97 l0 31 -119 11 c-185 18 -258 59 -288 162 -36 126 -10 238 194 827 92 269 124 370 119 390 -8 29 -102 134 -120 133 -6 0 -27 -7 -45 -16z"/>
</g>
</svg>
